<mxfile host="app.diagrams.net" modified="2023-06-13T07:59:57.232Z" agent="Mozilla/5.0 (Windows NT 10.0; Win64; x64) AppleWebKit/537.36 (KHTML, like Gecko) Chrome/113.0.0.0 Safari/537.36" version="21.3.8" etag="JMo_tRBe4TwKf_xFCZdt" type="github">
  <diagram name="Page-1" id="LSHt31080iZH0nd4SKKr">
    <mxGraphModel>
      <root>
        <mxCell id="0" />
        <mxCell id="1" parent="0" />
      </root>
    </mxGraphModel>
  </diagram>
</mxfile>
